<svg width="16" height="17" viewBox="0 0 16 17" fill="none" xmlns="http://www.w3.org/2000/svg">
<path d="M13.3333 5.16669H2.66659C1.93021 5.16669 1.33325 5.76364 1.33325 6.50002V13.1667C1.33325 13.9031 1.93021 14.5 2.66659 14.5H13.3333C14.0696 14.5 14.6666 13.9031 14.6666 13.1667V6.50002C14.6666 5.76364 14.0696 5.16669 13.3333 5.16669Z" stroke="#425466" stroke-width="1.5" stroke-linecap="round" stroke-linejoin="round"/>
<path d="M10.6666 14.5V3.83333C10.6666 3.47971 10.5261 3.14057 10.2761 2.89052C10.026 2.64048 9.68687 2.5 9.33325 2.5H6.66659C6.31296 2.5 5.97383 2.64048 5.72378 2.89052C5.47373 3.14057 5.33325 3.47971 5.33325 3.83333V14.5" stroke="#425466" stroke-width="1.5" stroke-linecap="round" stroke-linejoin="round"/>
</svg>
