<svg width="40" height="40" viewBox="0 0 40 40" fill="none" xmlns="http://www.w3.org/2000/svg">
<circle cx="20" cy="20" r="19.5" fill="white" stroke="white"/>
<g clip-path="url(#clip0_924_2185)">
<path d="M20 27.5C24.1421 27.5 27.5 24.1421 27.5 20C27.5 15.8579 24.1421 12.5 20 12.5C15.8579 12.5 12.5 15.8579 12.5 20C12.5 24.1421 15.8579 27.5 20 27.5Z" stroke="#E88E6E" stroke-width="1.5" stroke-linecap="round" stroke-linejoin="round"/>
<path d="M17.8174 17.7499C17.9937 17.2487 18.3417 16.826 18.7998 16.5568C19.258 16.2876 19.7966 16.1891 20.3203 16.279C20.844 16.3688 21.319 16.6411 21.6612 17.0476C22.0034 17.4541 22.1907 17.9686 22.1899 18.4999C22.1899 19.9999 19.9399 20.7499 19.9399 20.7499" stroke="#E88E6E" stroke-width="1.5" stroke-linecap="round" stroke-linejoin="round"/>
<path d="M20 23.75H20.0075" stroke="#E88E6E" stroke-width="1.5" stroke-linecap="round" stroke-linejoin="round"/>
</g>
<defs>
<clipPath id="clip0_924_2185">
<rect width="18" height="18" fill="white" transform="translate(11 11)"/>
</clipPath>
</defs>
</svg>
