<svg width="25" height="24" viewBox="0 0 25 24" fill="none" xmlns="http://www.w3.org/2000/svg">
<path d="M7.625 22V11M7.625 2V11M4.625 2V9C4.625 9.5 5.625 11 7.625 11M7.625 11C9.625 11 10.625 9.5 10.625 9V2" stroke="#DC5726" stroke-width="2" stroke-linecap="round" stroke-linejoin="round"/>
<path d="M17.625 22V12" stroke="#DC5726" stroke-width="2" stroke-linecap="round" stroke-linejoin="round"/>
<path d="M20.625 6.5C20.625 7.83039 20.2314 8.9942 19.6447 9.80092C19.0573 10.6086 18.3308 11 17.625 11C16.9192 11 16.1927 10.6086 15.6053 9.80092C15.0186 8.9942 14.625 7.83039 14.625 6.5C14.625 5.16961 15.0186 4.0058 15.6053 3.19908C16.1927 2.39139 16.9192 2 17.625 2C18.3308 2 19.0573 2.39139 19.6447 3.19908C20.2314 4.0058 20.625 5.16961 20.625 6.5Z" stroke="#DC5726" stroke-width="2"/>
</svg>
