<svg width="33" height="32" viewBox="0 0 33 32" fill="none" xmlns="http://www.w3.org/2000/svg">
<g filter="url(#filter0_d_918_1642)">
<path d="M11.3333 22V11M11.3333 2V11M8.33325 2V9C8.33325 9.5 9.33325 11 11.3333 11M11.3333 11C13.3333 11 14.3333 9.5 14.3333 9V2" stroke="#2E3E4D" stroke-width="2" stroke-linecap="round" stroke-linejoin="round"/>
<path d="M21.3333 22V12" stroke="#2E3E4D" stroke-width="2" stroke-linecap="round" stroke-linejoin="round"/>
<path d="M24.3333 6.5C24.3333 7.83039 23.9396 8.9942 23.3529 9.80092C22.7655 10.6086 22.0391 11 21.3333 11C20.6274 11 19.901 10.6086 19.3136 9.80092C18.7269 8.9942 18.3333 7.83039 18.3333 6.5C18.3333 5.16961 18.7269 4.0058 19.3136 3.19908C19.901 2.39139 20.6274 2 21.3333 2C22.0391 2 22.7655 2.39139 23.3529 3.19908C23.9396 4.0058 24.3333 5.16961 24.3333 6.5Z" stroke="#2E3E4D" stroke-width="2"/>
</g>
<defs>
<filter id="filter0_d_918_1642" x="0.333252" y="0" width="32" height="32" filterUnits="userSpaceOnUse" color-interpolation-filters="sRGB">
<feFlood flood-opacity="0" result="BackgroundImageFix"/>
<feColorMatrix in="SourceAlpha" type="matrix" values="0 0 0 0 0 0 0 0 0 0 0 0 0 0 0 0 0 0 127 0" result="hardAlpha"/>
<feOffset dy="4"/>
<feGaussianBlur stdDeviation="2"/>
<feComposite in2="hardAlpha" operator="out"/>
<feColorMatrix type="matrix" values="0 0 0 0 0 0 0 0 0 0 0 0 0 0 0 0 0 0 0.25 0"/>
<feBlend mode="normal" in2="BackgroundImageFix" result="effect1_dropShadow_918_1642"/>
<feBlend mode="normal" in="SourceGraphic" in2="effect1_dropShadow_918_1642" result="shape"/>
</filter>
</defs>
</svg>
