<svg width="24" height="24" viewBox="0 0 24 24" fill="none" xmlns="http://www.w3.org/2000/svg">
<path d="M7 22V11M7 2V11M4 2V9C4 9.5 5 11 7 11M7 11C9 11 10 9.5 10 9V2" stroke="#0D131A" stroke-width="2" stroke-linecap="round" stroke-linejoin="round"/>
<path d="M17 22V12" stroke="#0D131A" stroke-width="2" stroke-linecap="round" stroke-linejoin="round"/>
<path d="M20 6.5C20 7.83039 19.6064 8.9942 19.0197 9.80092C18.4323 10.6086 17.7058 11 17 11C16.2942 11 15.5677 10.6086 14.9803 9.80092C14.3936 8.9942 14 7.83039 14 6.5C14 5.16961 14.3936 4.0058 14.9803 3.19908C15.5677 2.39139 16.2942 2 17 2C17.7058 2 18.4323 2.39139 19.0197 3.19908C19.6064 4.0058 20 5.16961 20 6.5Z" stroke="#0D131A" stroke-width="2"/>
</svg>
