<svg width="18" height="19" viewBox="0 0 18 19" fill="none" xmlns="http://www.w3.org/2000/svg">
<path d="M5 17.5V9.25M5 2.5V9.25M3 2.5V7.75C3 8.125 3.66667 9.25 5 9.25M5 9.25C6.33333 9.25 7 8.125 7 7.75V2.5" stroke="white" stroke-width="1.5" stroke-linecap="round" stroke-linejoin="round"/>
<path d="M13 17.5V9.5" stroke="white" stroke-width="1.5" stroke-linecap="round" stroke-linejoin="round"/>
<path d="M13 2.25C13.5394 2.25 14.0852 2.53946 14.5215 3.12109C14.958 3.70311 15.25 4.54202 15.25 5.5C15.25 6.45798 14.958 7.29689 14.5215 7.87891C14.0852 8.46054 13.5394 8.75 13 8.75C12.4606 8.75 11.9148 8.46054 11.4785 7.87891C11.042 7.29689 10.75 6.45798 10.75 5.5C10.75 4.54202 11.042 3.70311 11.4785 3.12109C11.9148 2.53946 12.4606 2.25 13 2.25Z" stroke="white" stroke-width="1.5"/>
</svg>
