<svg width="26" height="26" viewBox="0 0 26 26" fill="none" xmlns="http://www.w3.org/2000/svg">
<path d="M1 1.0033L25 25" stroke="#0D131A" stroke-width="2" stroke-linecap="round" stroke-linejoin="round"/>
<path d="M16.2727 10.1002V4.27557C16.2735 3.46408 15.9728 2.68123 15.4288 2.079C14.8848 1.47677 14.1364 1.09813 13.3289 1.01657C12.5214 0.93502 11.7124 1.15638 11.059 1.63767C10.4055 2.11896 9.95423 2.82585 9.79273 3.62112M9.72727 9.72937V13.0016C9.72784 13.6484 9.92009 14.2805 10.2797 14.8181C10.6394 15.3557 11.1503 15.7747 11.748 16.0221C12.3456 16.2696 13.0032 16.3344 13.6377 16.2083C14.2722 16.0823 14.855 15.7711 15.3127 15.3141L9.72727 9.72937Z" stroke="#0D131A" stroke-width="2" stroke-linecap="round" stroke-linejoin="round"/>
<path d="M20.6364 10.8201V13.0016C20.636 13.4515 20.5958 13.9005 20.5164 14.3433M18.4546 18.4009C17.3896 19.4878 16.0242 20.2317 14.5334 20.5373C13.0427 20.8428 11.4946 20.6961 10.0878 20.1159C8.68108 19.5357 7.47977 18.5485 6.63804 17.2809C5.7963 16.0133 5.35254 14.5231 5.36367 13.0016V10.8201L18.4546 18.4009Z" stroke="#0D131A" stroke-width="2" stroke-linecap="round" stroke-linejoin="round"/>
<path d="M13 20.637V25" stroke="#0D131A" stroke-width="2" stroke-linecap="round" stroke-linejoin="round"/>
<path d="M8.63635 25H17.3636" stroke="#0D131A" stroke-width="2" stroke-linecap="round" stroke-linejoin="round"/>
</svg>
