<svg width="25" height="24" viewBox="0 0 25 24" fill="none" xmlns="http://www.w3.org/2000/svg">
<path d="M17.1667 9.40001L8.16675 4.21001" stroke="#2E3E4D" stroke-width="2" stroke-linecap="round" stroke-linejoin="round"/>
<path d="M21.6667 16V7.99999C21.6664 7.64927 21.5738 7.3048 21.3983 7.00116C21.2228 6.69751 20.9705 6.44536 20.6667 6.26999L13.6667 2.26999C13.3627 2.09446 13.0178 2.00204 12.6667 2.00204C12.3157 2.00204 11.9708 2.09446 11.6667 2.26999L4.66675 6.26999C4.36301 6.44536 4.11073 6.69751 3.93521 7.00116C3.75969 7.3048 3.66711 7.64927 3.66675 7.99999V16C3.66711 16.3507 3.75969 16.6952 3.93521 16.9988C4.11073 17.3025 4.36301 17.5546 4.66675 17.73L11.6667 21.73C11.9708 21.9055 12.3157 21.9979 12.6667 21.9979C13.0178 21.9979 13.3627 21.9055 13.6667 21.73L20.6667 17.73C20.9705 17.5546 21.2228 17.3025 21.3983 16.9988C21.5738 16.6952 21.6664 16.3507 21.6667 16Z" stroke="#2E3E4D" stroke-width="2" stroke-linecap="round" stroke-linejoin="round"/>
<path d="M3.93677 6.96001L12.6668 12.01L21.3968 6.96001" stroke="#2E3E4D" stroke-width="2" stroke-linecap="round" stroke-linejoin="round"/>
<path d="M12.6667 22.08V12" stroke="#2E3E4D" stroke-width="2" stroke-linecap="round" stroke-linejoin="round"/>
</svg>
