<svg width="40" height="40" viewBox="0 0 40 40" fill="none" xmlns="http://www.w3.org/2000/svg">
<circle cx="20" cy="20" r="19.5" fill="white" stroke="white"/>
<path d="M23.375 18.0502L16.625 14.1577" stroke="#E88E6E" stroke-width="1.5" stroke-linecap="round" stroke-linejoin="round"/>
<path d="M26.75 22.9999V16.9999C26.7497 16.7369 26.6803 16.4785 26.5487 16.2508C26.417 16.0231 26.2278 15.8339 26 15.7024L20.75 12.7024C20.522 12.5708 20.2633 12.5015 20 12.5015C19.7367 12.5015 19.478 12.5708 19.25 12.7024L14 15.7024C13.7722 15.8339 13.583 16.0231 13.4513 16.2508C13.3197 16.4785 13.2503 16.7369 13.25 16.9999V22.9999C13.2503 23.263 13.3197 23.5213 13.4513 23.7491C13.583 23.9768 13.7722 24.1659 14 24.2974L19.25 27.2974C19.478 27.4291 19.7367 27.4984 20 27.4984C20.2633 27.4984 20.522 27.4291 20.75 27.2974L26 24.2974C26.2278 24.1659 26.417 23.9768 26.5487 23.7491C26.6803 23.5213 26.7497 23.263 26.75 22.9999Z" stroke="#E88E6E" stroke-width="1.5" stroke-linecap="round" stroke-linejoin="round"/>
<path d="M13.4526 16.2202L20.0001 20.0077L26.5476 16.2202" stroke="#E88E6E" stroke-width="1.5" stroke-linecap="round" stroke-linejoin="round"/>
<path d="M20 27.56V20" stroke="#E88E6E" stroke-width="1.5" stroke-linecap="round" stroke-linejoin="round"/>
</svg>
