<svg width="25" height="24" viewBox="0 0 25 24" fill="none" xmlns="http://www.w3.org/2000/svg">
<path d="M16.875 9.40002L7.875 4.21002" stroke="#DC5726" stroke-width="2" stroke-linecap="round" stroke-linejoin="round"/>
<path d="M21.375 16V8.00002C21.3746 7.6493 21.2821 7.30483 21.1065 7.00119C20.931 6.69754 20.6787 6.44539 20.375 6.27002L13.375 2.27002C13.071 2.09449 12.7261 2.00208 12.375 2.00208C12.0239 2.00208 11.679 2.09449 11.375 2.27002L4.375 6.27002C4.07126 6.44539 3.81898 6.69754 3.64346 7.00119C3.46794 7.30483 3.37536 7.6493 3.375 8.00002V16C3.37536 16.3508 3.46794 16.6952 3.64346 16.9989C3.81898 17.3025 4.07126 17.5547 4.375 17.73L11.375 21.73C11.679 21.9056 12.0239 21.998 12.375 21.998C12.7261 21.998 13.071 21.9056 13.375 21.73L20.375 17.73C20.6787 17.5547 20.931 17.3025 21.1065 16.9989C21.2821 16.6952 21.3746 16.3508 21.375 16Z" stroke="#DC5726" stroke-width="2" stroke-linecap="round" stroke-linejoin="round"/>
<path d="M3.64502 6.96002L12.375 12.01L21.105 6.96002" stroke="#DC5726" stroke-width="2" stroke-linecap="round" stroke-linejoin="round"/>
<path d="M12.375 22.08V12" stroke="#DC5726" stroke-width="2" stroke-linecap="round" stroke-linejoin="round"/>
</svg>
