<svg width="40" height="40" viewBox="0 0 40 40" fill="none" xmlns="http://www.w3.org/2000/svg">
<circle cx="20" cy="20" r="19.5" fill="white" stroke="white"/>
<g clip-path="url(#clip0_925_2341)">
<path d="M27.5001 23.6901V25.9401C27.5009 26.1489 27.4581 26.3557 27.3745 26.5471C27.2908 26.7385 27.168 26.9103 27.0141 27.0515C26.8602 27.1927 26.6785 27.3002 26.4806 27.3671C26.2828 27.434 26.0731 27.4589 25.8651 27.4401C23.5572 27.1893 21.3403 26.4007 19.3926 25.1376C17.5804 23.9861 16.0441 22.4497 14.8926 20.6376C13.6251 18.681 12.8363 16.4533 12.5901 14.1351C12.5713 13.9277 12.596 13.7186 12.6624 13.5213C12.7289 13.3239 12.8358 13.1426 12.9761 12.9888C13.1165 12.835 13.2874 12.7121 13.4779 12.628C13.6684 12.5438 13.8743 12.5003 14.0826 12.5001H16.3326C16.6966 12.4965 17.0494 12.6254 17.3254 12.8627C17.6014 13.1001 17.7816 13.4297 17.8326 13.7901C17.9275 14.5101 18.1037 15.2171 18.3576 15.8976C18.4585 16.166 18.4803 16.4578 18.4205 16.7382C18.3607 17.0187 18.2217 17.2762 18.0201 17.4801L17.0676 18.4326C18.1352 20.3102 19.6899 21.8649 21.5676 22.9326L22.5201 21.9801C22.724 21.7784 22.9814 21.6395 23.2619 21.5796C23.5424 21.5198 23.8341 21.5417 24.1026 21.6426C24.783 21.8965 25.49 22.0726 26.2101 22.1676C26.5744 22.219 26.9071 22.4025 27.145 22.6832C27.3828 22.9639 27.5092 23.3223 27.5001 23.6901Z" stroke="#E88E6E" stroke-width="1.5" stroke-linecap="round" stroke-linejoin="round"/>
</g>
<defs>
<clipPath id="clip0_925_2341">
<rect width="18" height="18" fill="white" transform="translate(11 11)"/>
</clipPath>
</defs>
</svg>
