<svg width="40" height="40" viewBox="0 0 40 40" fill="none" xmlns="http://www.w3.org/2000/svg">
<circle cx="20" cy="20" r="19.5" fill="white" stroke="white"/>
<path d="M24.5 13.25C23.9033 13.25 23.331 13.4871 22.909 13.909C22.4871 14.331 22.25 14.9033 22.25 15.5V24.5C22.25 25.0967 22.4871 25.669 22.909 26.091C23.331 26.5129 23.9033 26.75 24.5 26.75C25.0967 26.75 25.669 26.5129 26.091 26.091C26.5129 25.669 26.75 25.0967 26.75 24.5C26.75 23.9033 26.5129 23.331 26.091 22.909C25.669 22.4871 25.0967 22.25 24.5 22.25H15.5C14.9033 22.25 14.331 22.4871 13.909 22.909C13.4871 23.331 13.25 23.9033 13.25 24.5C13.25 25.0967 13.4871 25.669 13.909 26.091C14.331 26.5129 14.9033 26.75 15.5 26.75C16.0967 26.75 16.669 26.5129 17.091 26.091C17.5129 25.669 17.75 25.0967 17.75 24.5V15.5C17.75 14.9033 17.5129 14.331 17.091 13.909C16.669 13.4871 16.0967 13.25 15.5 13.25C14.9033 13.25 14.331 13.4871 13.909 13.909C13.4871 14.331 13.25 14.9033 13.25 15.5C13.25 16.0967 13.4871 16.669 13.909 17.091C14.331 17.5129 14.9033 17.75 15.5 17.75H24.5C25.0967 17.75 25.669 17.5129 26.091 17.091C26.5129 16.669 26.75 16.0967 26.75 15.5C26.75 14.9033 26.5129 14.331 26.091 13.909C25.669 13.4871 25.0967 13.25 24.5 13.25Z" stroke="#E88E6E" stroke-width="1.5" stroke-linecap="round" stroke-linejoin="round"/>
</svg>
