<svg width="56" height="79" viewBox="0 0 56 79" fill="none" xmlns="http://www.w3.org/2000/svg">
<path d="M39.4408 31.4953C40.4867 32.263 42.0002 35.5 43.5002 38C45.0002 40.5 47.4999 44.5 45.4999 50C43.4999 55.5 43.0801 58.2729 50.0002 60.5C51.411 60.9538 51.8576 61.7291 51.0002 63.5C49.8996 65.7786 39.8309 70.9478 37.0002 72C32.9777 73.4937 28.5347 75.6326 24.2628 76.5867C21.3106 77.2465 14.354 78.6348 11.6115 77.6684C10.1491 77.1533 12.7652 81.1187 10.6325 76.0594C8.49979 71 3.76461 68 2.99985 61.5C2.23508 55 4.50008 53.5 6.49975 47.5C8.49942 41.5 6.99981 41.5 8.49981 35.5C9.99981 29.5 15.5002 20.5 15.5002 20.5C13.5002 26.5 12.4563 34.1842 15.4998 40.5C16.2326 42.0183 21.7628 45 24.2628 44.5C26.7628 44 29.9191 42.4347 31.9999 39.5C33.8114 36.9449 35.3727 36.0648 34.2751 31.8093C33.3629 28.2822 30.5002 27.5 27.0002 25.5C30.0002 25.5 33.9438 27.0002 35.5002 28C37.0566 28.9998 39.4408 31.4953 39.4408 31.4953Z" fill="url(#paint0_linear_709_62)"/>
<path d="M37.5 44C38 45 37.8929 46.6555 37 47.5C35.882 48.5588 35.7229 50.4698 34.5 52C32.8524 54.0646 33.682 55.0261 32.5 57C31.3564 58.9109 31.0065 59.4456 28.8677 58.6212C26.5728 57.7364 26.7576 54.6595 27.3512 53.4545C28.7813 50.5454 21.4999 46.5 17.6342 46C20.4999 49.5 17.6504 52.8375 16.4998 57C15.4751 60.7071 12.5136 62.1538 12.5001 66C12.4847 70.3898 14.3109 72.8866 17.6342 76C19.8447 75.763 22.3007 75.7 29.3951 73.2723C35.0799 71.3262 44.8257 65.9554 46 65C45.3399 63.9412 42.7363 64.4731 41.5 63C40.2127 61.4661 41.6479 60 40.363 58C39.078 56 38.2321 55.7284 40 53.4545C40.8596 52.3478 38.345 50.884 39 49.5C40.6911 45.9143 38.5 45 37.5 44Z" fill="#FCEE21"/>
<path d="M35 64.5C34.6047 63.0839 36.4245 61.7742 35.5 60.5C34.6651 59.3495 34.8157 56.7805 33.5 58C32.9748 58.677 31.403 63.3059 30.5 64C29.2518 64.9593 27.8333 61.5083 24.5 62C22.0186 61.2975 23.5981 58.0452 23.5 56C22.25 53.542 18.6225 63.9667 20.0002 65C24.0001 68 20.6666 71.0394 23.021 75C29.2043 73.5867 33.0735 71.6291 39 68.6671C37.2342 67.6854 38.7993 65.8402 37.5 64.9999C36.6639 64.4593 35.3953 65.9161 35 64.5Z" fill="#FEFCE5"/>
<path d="M50.1521 59.2615C50.4354 59.0547 50.9854 59.4449 51.1487 60.0652C51.2654 60.5054 50.9154 61.4325 50.6787 61.8594C48.002 66.7017 33.0254 72.7412 27.6787 74.5154C23.7154 75.8293 13.4254 78.8608 9.69872 77.2767C8.51539 76.7731 8.51872 76.0995 8.79206 74.9422C9.15872 75.0523 9.47206 75.2724 9.84872 75.3691C16.8754 77.1933 31.9921 71.5073 38.5687 68.2524C42.0287 66.5416 46.8687 63.7936 49.3854 60.8756C50.0254 60.1052 50.0721 59.6283 50.1487 59.2615H50.1521Z" fill="#DC5726"/>
<defs>
<linearGradient id="paint0_linear_709_62" x1="29.0364" y1="75.7871" x2="27.3629" y2="35.167" gradientUnits="userSpaceOnUse">
<stop stop-color="#FFF200"/>
<stop offset="1" stop-color="#DC5726"/>
</linearGradient>
</defs>
</svg>
