<svg width="56" height="78" viewBox="0 0 56 78" fill="none" xmlns="http://www.w3.org/2000/svg">
<path d="M46.0002 18.5C54.5002 25 46.9397 34.3873 48.1887 44.5C48.6478 48.2169 48.8768 50.3071 49.5002 54C49.9867 56.8822 49.0002 58.5 50.9187 61.3491C49.7121 64.4472 40.8054 68.976 37.7021 70.4067C33.2921 72.4377 28.4054 74.2819 23.7221 75.5792C20.4854 76.4762 12.8587 78.3638 9.85208 77.0499C8.24875 76.3495 9.09208 75.239 8.77875 74.8622C1.03875 69.4429 1.4342 62.9621 4.00009 55C6.50016 47.2421 11.2899 43.9299 13.5 36.5C15.185 30.8356 14.6132 27.3428 15.5 21.5C16.2129 16.8029 21 7.5 21 7.5C22 16.6079 24.6634 18.1586 28.0001 26.746C28.8034 28.8103 30.2734 34.479 31.5001 36.5C35.1601 42.5295 44.2354 33.2191 42.0187 26.746C40.4854 22.2739 39.7653 21.6767 38.0002 20.5C35.0002 18.5 35.2416 14 37.0002 7.5C38.7416 11.5 42.8258 16.0725 46.0002 18.5Z" fill="url(#paint0_linear_709_75)"/>
<path d="M44.5987 35.14C44.3321 36.5906 44.3387 37.8412 43.1754 38.9584C41.7187 40.3591 39.4354 39.7521 37.8421 41.7764C35.6954 44.5077 37.2121 48.7097 35.6721 51.321C34.1821 53.8488 29.6987 55.9231 26.9121 54.8326C23.9221 53.6621 26.7154 50.764 27.4887 49.1699C29.3521 45.3215 28.3821 40.4158 25.4054 37.4177C25.4454 37.8079 25.5321 38.1947 25.5387 38.5916C25.6521 48.5296 16.8087 52.3748 12.7687 60.502C10.1721 65.7278 10.6554 71.5139 14.9854 75.6325C17.8654 75.319 21.0654 75.2356 30.3087 72.0241C37.7154 69.4496 43.8987 65.541 45.4287 64.2771C44.5687 62.8764 42.9554 60.5553 41.6487 59.5815C40.9354 59.0513 40.3654 59.0313 39.7254 58.1542C37.3521 54.8927 38.8454 48.3462 41.1487 45.3381C42.2687 43.8741 43.8554 43.4872 44.7087 41.6564C45.7187 39.482 45.4254 36.8741 44.8187 34.623C44.5454 34.7098 44.6354 34.9532 44.5987 35.1466V35.14Z" fill="#FCEE21"/>
<path d="M36.5419 61.199C36.0853 59.5249 36.0786 57.8308 35.4286 56.2267C35.1753 56.2033 35.1419 56.3434 35.0219 56.5035C34.4153 57.3039 33.8753 58.5878 33.2486 59.4882C31.5186 61.9794 27.5453 66.4315 24.1686 65.4544C21.3019 64.624 21.1919 59.3115 21.0786 56.8937C20.7653 56.6202 18.9753 59.2014 18.8353 59.4549C16.0553 64.5139 17.7219 70.1399 20.4419 74.8222C27.5853 73.1514 33.6619 70.8369 40.5086 67.3353C38.4686 66.1747 37.1386 63.3967 36.5386 61.1957L36.5419 61.199Z" fill="#FEFCE5"/>
<path d="M50.1521 59.2615C50.4354 59.0547 50.9854 59.4449 51.1487 60.0652C51.2654 60.5054 50.9154 61.4325 50.6787 61.8594C48.002 66.7017 33.0254 72.7412 27.6787 74.5154C23.7154 75.8293 13.4254 78.8608 9.69872 77.2767C8.51539 76.7731 8.51872 76.0995 8.79206 74.9422C9.15872 75.0523 9.47206 75.2724 9.84872 75.3691C16.8754 77.1933 31.9921 71.5073 38.5687 68.2524C42.0287 66.5416 46.8687 63.7936 49.3854 60.8756C50.0254 60.1052 50.0721 59.6283 50.1487 59.2615H50.1521Z" fill="#DC5726"/>
<defs>
<linearGradient id="paint0_linear_709_75" x1="28.9556" y1="74.492" x2="26.1363" y2="19.3126" gradientUnits="userSpaceOnUse">
<stop stop-color="#FFF200"/>
<stop offset="1" stop-color="#DC5726"/>
</linearGradient>
</defs>
</svg>
