<svg width="56" height="78" viewBox="0 0 56 78" fill="none" xmlns="http://www.w3.org/2000/svg">
<path d="M40.3108 22.5207C41.4438 23.4366 42.8042 23.8872 44.0624 24.5719C53.6211 29.7774 58.7627 40.0188 51.7436 48.8936C49.4379 51.8109 40.5479 58.8979 48.0447 61.5548C49.573 62.0961 51.6711 61.7157 50.7423 63.8283C49.5499 66.5467 40.7488 70.5203 37.6823 71.7756C33.3246 73.5576 28.4958 75.1757 23.868 76.314C20.6697 77.1011 13.1335 78.7573 10.1624 77.6044C8.57812 76.9899 9.41145 76.0155 9.10183 75.6849C1.45359 70.93 2.40357 63.8283 4.44767 57.35C7.3443 50.7996 12.9338 50.8842 14.2612 45.0964C15.5524 39.4608 15.7434 36.3223 14.2612 31.0579C12.779 25.7934 18.5 18.5 18.5 18.5C22 26 26.7744 24.8393 30.0715 32.374C30.8653 34.1852 32.2739 36.9434 33.486 38.7166C37.1026 44.007 44.1382 39.1468 41.9478 33.4672C40.4326 29.5434 35.9036 27.972 34.7146 22.8953C33.7264 18.6876 32.5 16 30.0715 12C35.5 15.5 36.1046 19.1235 40.3141 22.5266L40.3108 22.5207Z" fill="url(#paint0_linear_709_31)"/>
<path d="M39.5 45C38 45 38.1549 46.101 37 47C35.5539 48.1271 36 51 36 51.5C36 52 35.0288 54.3987 33.5 56.5C32.0208 58.5341 29.3842 60.14 26.6177 59.2625C23.6494 58.3206 20.5 59.5 20.5 54.5C22.5 50 28.0771 47.6614 25.122 45.2488C25.1617 45.5628 23 47.2195 21 48C11.2456 51.8065 16.5877 57.2847 12.577 63.8246C9.99921 68.0298 10.479 72.6858 14.7776 76C17.6367 75.7477 20.8135 75.6807 29.9897 73.0964C37.3426 71.0246 43.4811 67.8795 45 66.8624C44.1462 65.7353 42.5446 63.8675 41.2474 63.0839C40.5393 62.6572 39.9734 62.6411 39.3381 61.9353C36.982 59.3108 36.7134 56.9206 39 54.5C40.1119 53.3219 39.1529 50.4732 40 49C41.0027 47.2503 41.196 46.2274 41.2474 45C41.2824 44.1669 40.5364 42.8443 40.5 43C40.5 43 41 44.9999 39.5 45Z" fill="#FCEE21"/>
<path d="M34.4999 65C34.9999 64.5 35.4999 63.5001 35.4999 61.5001C35.4999 59.5001 35.9999 58.5001 35.4999 57.5001C34.8697 58.1886 34.1098 61.0335 33.4589 61.8081C31.6619 63.9513 31 66 27 66.5C24.0223 65.7856 22.3436 60.4999 20.9999 60.4999C19.6561 60.4999 20.4873 60.7794 18.4999 65C16.5125 69.2206 17.3309 70.9719 20.1563 75C27.5762 73.5626 28.8881 73.0125 35.9999 70C33.8809 69.0016 32.4999 68.5 32.9999 67C33.4999 65.5 33.9999 65.5 34.4999 65Z" fill="#FEFCE5"/>
<path d="M50.1521 59.2615C50.4354 59.0547 50.9854 59.4449 51.1487 60.0652C51.2654 60.5054 50.9154 61.4325 50.6787 61.8594C48.002 66.7017 33.0254 72.7412 27.6787 74.5154C23.7154 75.8293 13.4254 78.8608 9.69872 77.2767C8.51539 76.7731 8.51872 76.0995 8.79206 74.9422C9.15872 75.0523 9.47206 75.2724 9.84872 75.3691C16.8754 77.1933 31.9921 71.5073 38.5687 68.2524C42.0287 66.5416 46.8687 63.7936 49.3854 60.8756C50.0254 60.1052 50.0721 59.6283 50.1487 59.2615H50.1521Z" fill="#DC5726"/>
<defs>
<linearGradient id="paint0_linear_709_31" x1="29.0395" y1="75.3601" x2="26.8418" y2="26.9184" gradientUnits="userSpaceOnUse">
<stop stop-color="#FFF200"/>
<stop offset="1" stop-color="#DC5726"/>
</linearGradient>
</defs>
</svg>
